<?xml version="1.0" encoding="UTF-8" standalone="no"?>
<!DOCTYPE svg PUBLIC "-//W3C//DTD SVG 1.1//EN" "http://www.w3.org/Graphics/SVG/1.1/DTD/svg11.dtd">
<svg width="100%" height="100%" viewBox="0 0 50 50" version="1.1" xmlns="http://www.w3.org/2000/svg" xmlns:xlink="http://www.w3.org/1999/xlink" xml:space="preserve" xmlns:serif="http://www.serif.com/" style="fill-rule:evenodd;clip-rule:evenodd;stroke-linejoin:round;stroke-miterlimit:2;">
    <rect id="santaplanta-isotype--website-nav" x="0" y="0" width="50" height="50" style="fill:#fff;"/>
    <clipPath id="_clip1">
        <rect x="0" y="0" width="50" height="50"/>
    </clipPath>
    <g clip-path="url(#_clip1)">
        <g id="santaplanta-isotype">
            <path id="santaplanta-isotype1" serif:id="santaplanta-isotype" d="M24.953,50c-7.96,-0.024 -14.511,-6.079 -15.319,-13.831c2.953,3.281 7.897,4.171 11.87,1.877c4.038,-2.332 9.079,-1.375 12.012,2.036c-1.723,2.94 -4.893,4.914 -8.516,4.918l0.003,-0c6.505,-0 11.787,-4.481 11.787,-10l0,-0.025c0,-4.884 -4.116,-8.957 -9.558,-9.845c7.471,0.876 13.218,6.084 13.218,12.37c0,6.899 -6.923,12.5 -15.45,12.5l-0.047,-0Zm0.094,-50c7.96,0.024 14.511,6.079 15.319,13.831c-2.953,-3.281 -7.897,-4.171 -11.87,-1.877c-4.038,2.332 -9.079,1.375 -12.012,-2.036c1.723,-2.94 4.893,-4.914 8.516,-4.918l-0.002,-0c-6.506,-0 -11.788,4.481 -11.788,10l-0,0.025c-0,4.884 4.116,8.957 9.558,9.845c-7.471,-0.876 -13.218,-6.084 -13.218,-12.37c0,-6.899 6.923,-12.5 15.45,-12.5l0.047,0Z"/>
        </g>
    </g>
</svg>
